<?xml version="1.0" standalone="no"?>
<!DOCTYPE svg PUBLIC "-//W3C//DTD SVG 20010904//EN"
 "http://www.w3.org/TR/2001/REC-SVG-20010904/DTD/svg10.dtd">
<svg version="1.0" xmlns="http://www.w3.org/2000/svg"
 width="800.000000pt" height="450.000000pt" viewBox="0 0 800.000000 450.000000"
 preserveAspectRatio="xMidYMid meet">

<g transform="translate(0.000000,450.000000) scale(0.100000,-0.100000)"
fill="#000000" stroke="none">
<path d="M4158 3964 c-3 -3 -120 -5 -259 -5 -247 0 -256 -1 -329 -26 -97 -33
-226 -85 -315 -128 -38 -18 -109 -51 -156 -74 -102 -48 -213 -144 -258 -224
-17 -32 -43 -110 -66 -202 -73 -298 -136 -522 -176 -623 -22 -57 -39 -105 -37
-106 2 -1 35 -16 74 -33 99 -44 286 -99 384 -114 78 -12 83 -12 93 7 10 18 11
18 18 -6 4 -14 7 -42 8 -63 1 -49 21 -39 22 11 1 20 5 51 10 67 4 17 5 -18 2
-85 -3 -63 -6 -218 -8 -345 -3 -244 -3 -242 -37 -465 -23 -149 -29 -307 -11
-318 5 -4 13 -14 17 -22 3 -8 4 -1 2 16 -3 17 6 74 18 125 13 52 34 143 47
204 12 60 24 104 27 97 4 -14 -54 -301 -74 -360 -8 -24 -12 -47 -9 -52 3 -5
-6 -76 -21 -157 -28 -160 -47 -330 -40 -349 3 -7 1 -14 -4 -16 -4 -2 -10 -16
-12 -33 -3 -26 1 -30 32 -37 38 -9 576 -32 680 -29 36 1 202 3 370 5 168 1
332 3 365 4 57 3 59 3 35 16 -39 22 -37 83 3 77 4 0 7 4 7 10 0 5 5 7 12 3 8
-5 9 -2 5 10 -4 10 -3 15 3 11 6 -3 9 2 8 12 0 10 0 27 1 38 1 16 3 17 11 5 6
-9 5 -17 -3 -22 -9 -6 -7 -12 7 -23 19 -14 19 -15 -4 -35 -18 -16 -20 -20 -7
-20 10 0 17 5 17 10 0 6 5 10 10 10 7 0 7 -6 0 -20 -9 -16 -8 -20 5 -20 29 0
12 -35 -20 -41 -43 -9 100 -11 161 -2 40 5 44 8 24 13 -14 3 -25 12 -25 20 0
22 -18 38 -34 32 -10 -4 -12 -1 -6 7 4 8 2 17 -6 22 -12 7 -12 12 -1 31 9 16
5 14 -12 -6 -20 -24 -24 -26 -23 -10 1 10 6 22 11 25 12 9 -15 43 -36 47 -9 1
-19 -5 -21 -15 -4 -16 -5 -16 -6 -1 0 9 -11 20 -23 24 l-23 7 23 8 c24 9 29
24 10 35 -7 5 -8 3 -3 -6 5 -8 3 -11 -6 -8 -8 3 -22 -1 -31 -10 -16 -14 -18
-13 -18 1 0 8 6 18 13 21 6 3 -3 5 -20 3 -26 -3 -33 0 -33 15 0 10 5 18 11 18
5 0 7 -5 4 -10 -3 -6 3 -10 13 -10 11 0 23 7 26 16 6 15 4 15 -10 3 -15 -12
-16 -11 -9 10 5 16 4 21 -4 17 -6 -4 -11 0 -11 10 0 14 -2 15 -17 3 -14 -12
-14 -11 1 13 17 27 17 28 0 35 -16 6 -16 7 2 14 17 7 17 8 -3 8 -24 1 -27 21
-9 50 6 9 5 12 -1 8 -6 -4 -13 0 -17 8 -3 8 -1 15 3 15 12 0 8 24 -5 41 -19
24 -23 48 -11 53 9 3 9 7 1 13 -10 7 -14 23 -15 66 0 13 -4 16 -12 9 -9 -8
-12 1 -13 36 -3 70 -8 112 -15 112 -4 0 -10 35 -15 78 -7 75 -9 89 -13 95 -2
1 -4 18 -7 37 -8 67 -10 75 -17 87 -4 6 -3 14 2 17 6 4 6 18 1 36 -5 17 -7 30
-4 30 3 0 0 10 -7 21 -7 14 -7 19 0 15 10 -7 9 17 -4 74 -3 14 -2 18 1 10 4
-8 14 -23 23 -33 23 -27 42 -128 27 -146 -8 -11 -8 -13 1 -8 12 8 18 -6 28
-58 7 -43 11 -59 33 -155 28 -121 45 -204 42 -209 -1 -2 2 -7 7 -10 5 -3 15
-39 22 -78 7 -40 17 -76 22 -79 5 -3 7 -10 4 -15 -4 -5 -3 -9 2 -9 4 0 9 -17
11 -37 1 -20 9 -44 18 -54 12 -13 13 -18 2 -22 -9 -4 -8 -6 4 -6 11 -1 15 -7
10 -23 -3 -12 -1 -19 4 -15 6 3 11 -4 11 -16 1 -12 7 -23 13 -25 5 -2 7 -9 3
-15 -9 -15 -11 -47 -3 -47 3 0 11 5 18 12 9 9 9 4 2 -23 -6 -18 -10 -35 -10
-35 0 -1 16 -1 35 0 19 1 35 -2 35 -6 0 -5 -8 -8 -17 -8 -15 0 -16 -2 -3 -10
26 -17 37 -11 34 18 -5 58 -17 111 -49 217 -41 135 -101 356 -110 410 -4 22
-10 49 -13 60 -3 11 -5 35 -6 53 -1 17 -4 32 -8 32 -4 0 -7 8 -7 18 0 9 -5 39
-11 65 -9 37 -9 52 0 60 8 9 10 8 5 -5 -4 -10 0 -31 8 -48 11 -21 12 -30 4
-30 -9 0 -9 -2 0 -8 6 -4 13 -16 15 -27 1 -11 8 -23 13 -27 6 -5 4 -8 -4 -8
-11 0 -10 -4 3 -19 10 -11 15 -25 11 -30 -3 -6 -1 -11 5 -11 6 0 8 -5 4 -11
-3 -6 -1 -15 6 -19 6 -4 13 -19 13 -34 1 -14 6 -26 11 -26 5 0 6 -3 3 -7 -4
-3 -2 -12 4 -20 6 -7 8 -13 4 -13 -4 0 -1 -7 6 -16 21 -26 71 -169 61 -178 -3
-4 -1 -6 5 -6 6 0 13 -15 16 -32 7 -44 11 -61 19 -73 3 -5 13 -38 22 -73 9
-35 25 -82 36 -105 l20 -42 -5 70 c-8 93 -28 252 -59 460 -13 94 -27 193 -31
220 -3 28 -8 59 -11 70 -5 26 -13 85 -20 160 -3 33 -16 114 -29 180 -54 271
-76 397 -72 401 3 3 7 -7 11 -21 4 -14 13 -25 22 -25 8 0 12 -5 9 -10 -4 -6
-11 -8 -16 -5 -6 4 -6 -2 0 -17 19 -47 23 -64 26 -110 2 -26 6 -51 9 -56 3 -5
10 -40 16 -78 11 -71 86 -407 97 -434 4 -10 9 -3 16 20 11 42 15 250 4 257 -4
2 -7 16 -7 31 1 15 -1 38 -4 52 -3 14 -7 41 -10 60 -3 19 -8 46 -11 60 -3 14
-8 41 -11 60 -3 19 -7 41 -9 48 -3 7 -7 34 -10 60 -3 26 -8 66 -11 89 -6 50 4
59 38 30 21 -18 28 -40 43 -122 10 -55 20 -106 24 -113 4 -6 8 30 9 80 1 51 5
105 8 121 4 18 1 27 -7 27 -7 0 -9 3 -5 7 4 4 22 6 39 5 52 -5 178 25 330 79
77 27 144 52 147 56 3 3 -15 3 -40 -1 -37 -5 -41 -4 -20 4 13 6 26 13 28 15 6
6 -19 46 -26 41 -4 -2 -7 10 -8 27 0 18 -3 57 -7 87 -4 30 -9 79 -11 108 -3
29 -11 74 -19 100 -14 45 -73 284 -80 327 -9 49 -20 83 -39 118 -14 27 -17 41
-10 50 13 16 -10 67 -48 105 -49 49 -110 93 -120 87 -6 -4 -9 -1 -8 6 3 15
-93 69 -232 130 -52 23 -137 62 -189 86 -86 41 -95 44 -104 28 -21 -39 -79
-93 -124 -118 -46 -24 -147 -48 -203 -46 -23 0 -23 1 -5 9 17 7 17 9 3 9 -10
1 -18 6 -18 12 0 6 -7 9 -15 6 -8 -4 -17 -2 -20 3 -4 6 13 10 39 10 108 0 228
52 268 117 l19 32 -30 15 c-29 15 -161 23 -173 10z m-548 -28 c0 -2 -8 -10
-17 -17 -16 -13 -17 -12 -4 4 13 16 21 21 21 13z m393 -153 c-13 -2 -33 -2
-45 0 -13 2 -3 4 22 4 25 0 35 -2 23 -4z m54 -39 c-3 -3 -12 -4 -19 -1 -8 3
-5 6 6 6 11 1 17 -2 13 -5z m436 -454 l26 21 30 -33 c24 -26 32 -31 42 -20 7
6 17 12 21 12 12 0 10 -38 -3 -46 -8 -4 -8 -9 0 -17 6 -6 11 -20 11 -31 -1
-20 -1 -20 -19 2 -30 35 -35 26 -6 -13 15 -19 25 -42 23 -52 -3 -14 -11 -7
-35 28 -53 76 -56 77 -116 36 -42 -30 -53 -34 -55 -21 -2 9 11 30 30 46 28 26
29 28 6 14 -15 -9 -30 -16 -33 -16 -11 0 -4 28 10 40 14 12 14 15 0 30 -8 9
-15 25 -15 35 0 16 4 15 28 -8 l29 -28 26 21z m63 -125 c22 -29 24 -38 14 -50
-19 -23 -64 -18 -90 10 l-24 26 29 24 c17 13 33 24 37 25 4 0 19 -16 34 -35z
m-1349 -942 c-3 -10 -5 -2 -5 17 0 19 2 27 5 18 2 -10 2 -26 0 -35z m-10 -65
c-3 -8 -6 -5 -6 6 -1 11 2 17 5 13 3 -3 4 -12 1 -19z m-20 -155 c-3 -10 -5 -2
-5 17 0 19 2 27 5 18 2 -10 2 -26 0 -35z m1193 -7 c0 -3 -4 -8 -10 -11 -5 -3
-10 -1 -10 4 0 6 5 11 10 11 6 0 10 -2 10 -4z m10 -26 c-8 -5 -19 -10 -25 -10
-5 0 -3 5 5 10 8 5 20 10 25 10 6 0 3 -5 -5 -10z m-1143 -292 c-3 -8 -6 -5 -6
6 -1 11 2 17 5 13 3 -3 4 -12 1 -19z m1323 -878 c0 -5 -2 -10 -4 -10 -3 0 -8
5 -11 10 -3 6 -1 10 4 10 6 0 11 -4 11 -10z m120 2 c0 -5 -11 -21 -24 -36 -22
-27 -23 -27 -29 -7 -4 16 0 21 13 21 23 0 35 16 18 23 -8 3 -6 6 5 6 9 1 17
-3 17 -7z"/>
<path d="M4499 3254 c-12 -15 -11 -16 8 -10 12 4 24 2 28 -4 3 -5 11 -10 17
-10 6 0 3 9 -7 20 -22 24 -29 25 -46 4z"/>
<path d="M4506 3151 c-3 -5 1 -12 10 -15 20 -8 29 -1 19 13 -8 13 -22 14 -29
2z"/>
<path d="M4356 3895 c4 -8 12 -15 19 -15 7 0 18 7 25 15 11 13 8 15 -18 15
-24 0 -30 -4 -26 -15z"/>
<path d="M4831 2074 c0 -11 3 -14 6 -6 3 7 2 16 -1 19 -3 4 -6 -2 -5 -13z"/>
<path d="M3093 1235 c0 -27 2 -38 4 -22 2 15 2 37 0 50 -2 12 -4 0 -4 -28z"/>
<path d="M3110 1138 c-7 -29 -10 -64 -8 -78 2 -15 9 6 15 50 14 88 10 104 -7
28z"/>
</g>
</svg>
