<svg id="epfovAk1F961" xmlns="http://www.w3.org/2000/svg" xmlns:xlink="http://www.w3.org/1999/xlink" viewBox="0 0 300 300" shape-rendering="geometricPrecision" text-rendering="geometricPrecision"><g transform="matrix(1.5 0 0 1.5-68.890485-113.900218)"><ellipse rx="99.187334" ry="101.132183" transform="matrix(.93775 0 0 0.915104 145.926993 175.933481)" fill="#fff" stroke="#fff"/><path d="M94.702064,229.538604c-1.345731-53.074549,3.945955-80.526354,15.302573-118.942731c12.457523,4.649645,15.530944,22.00254,16.693716,33.387431h30.256139c-.084756-9.742801,10.162247-26.784304,17.738296-34.083006c10.875096,11.810114,23.761852,72.963353,33.387434,119.638306" transform="translate(.000001 0.000004)" fill="none" stroke="#000" stroke-width="5" stroke-linecap="round" stroke-linejoin="round"/><line x1="-13.829799" y1="0.054857" x2="13.8298" y2="-0.054857" transform="translate(145.926992 177.956605)" fill="none" stroke="#000" stroke-width="3" stroke-linecap="round" stroke-linejoin="round"/><line x1="-14.150493" y1="2.297412" x2="9.679195" y2="-2.077982" transform="translate(188.843282 175.823766)" fill="none" stroke="#000" stroke-width="3" stroke-linecap="round" stroke-linejoin="round"/><line x1="13.126908" y1="2.187697" x2="-8.247416" y2="-2.418718" transform="matrix(1.000002 0 0 0.949848 102.949497 176.043198)" fill="none" stroke="#000" stroke-width="3" stroke-linecap="round" stroke-linejoin="round"/><path d="M130.893831,199.0363c4.621456,10.56126,17.161738,1.556901,14.782079,0-.937234,2.296034,10.039195,9.905269,15.117217,0" transform="matrix(.925092 0 0 1.167325 11.008357-33.576672)" fill="none" stroke="#000" stroke-width="3" stroke-linecap="round" stroke-linejoin="round"/><path d="M115.829312,168.593652c.519242-1.997949,17.02334-1.729152,17.461276.000001c4.561677,4.076849,3.59624,15.757757,0,17.916719s-15.915927,1.965138-17.616258-.883885c-5.17477-7.270345-2.264185-16.286864.154982-17.032834" transform="translate(39.618528 0.27766)" stroke-width="0.6"/><path d="M115.829312,168.593652c.519242-1.997949,17.02334-1.729152,17.461276.000001c4.561677,4.076849,3.59624,15.757757,0,17.916719s-15.915927,1.965138-17.616258-.883885c-5.17477-7.270345-2.264185-16.286864.154982-17.032834" stroke-width="0.6"/></g></svg>
