<svg width="18" height="19" viewBox="0 0 18 19" fill="none" xmlns="http://www.w3.org/2000/svg">
<path d="M15.3 0.5H2.7C1.20883 0.5 0 1.70883 0 3.2V15.8C0 17.2912 1.20883 18.5 2.7 18.5H15.3C16.7912 18.5 18 17.2912 18 15.8V3.2C18 1.70883 16.7912 0.5 15.3 0.5Z" fill="#1877F2"/>
<path d="M12.5016 12.1016L12.9023 9.5H10.4062V7.8125C10.4062 7.10234 10.7543 6.40625 11.8723 6.40625H13.0078V4.19141C13.0078 4.19141 11.9777 4.01562 10.9934 4.01562C8.93672 4.01562 7.59375 5.26016 7.59375 7.51719V9.5H5.30859V12.1016H7.59375V18.5H10.4062V12.1016H12.5016Z" fill="white"/>
</svg>
