<svg width="27" height="27" viewBox="0 0 27 27" fill="none" xmlns="http://www.w3.org/2000/svg">
<path d="M26.7374 10.856H25.65V10.8H13.5V16.2H21.1295C20.0165 19.3435 17.0255 21.6 13.5 21.6C9.02678 21.6 5.4 17.9732 5.4 13.5C5.4 9.02678 9.02678 5.4 13.5 5.4C15.5648 5.4 17.4433 6.17895 18.8737 7.45132L22.6922 3.63285C20.281 1.38577 17.0559 0 13.5 0C6.04463 0 0 6.04463 0 13.5C0 20.9554 6.04463 27 13.5 27C20.9554 27 27 20.9554 27 13.5C27 12.5948 26.9069 11.7113 26.7374 10.856Z" fill="#FFC107"/>
<path d="M1.55658 7.21642L5.992 10.4693C7.19215 7.4979 10.0987 5.4 13.5 5.4C15.5649 5.4 17.4434 6.17895 18.8737 7.45132L22.6922 3.63285C20.2811 1.38577 17.0559 0 13.5 0C8.31468 0 3.81783 2.92747 1.55658 7.21642Z" fill="#FF3D00"/>
<path d="M13.5 27C16.9871 27 20.1555 25.6656 22.5511 23.4954L18.3728 19.9598C17.0174 20.9865 15.3326 21.6 13.5 21.6C9.98865 21.6 7.00718 19.3611 5.88398 16.2365L1.48163 19.6284C3.71588 24.0003 8.25323 27 13.5 27Z" fill="#4CAF50"/>
<path d="M26.7374 10.856H25.65V10.8H13.5V16.2H21.1295C20.5949 17.71 19.6236 19.012 18.3708 19.9604C18.3715 19.9597 18.3721 19.9597 18.3728 19.9591L22.5511 23.4947C22.2554 23.7634 27 20.25 27 13.5C27 12.5948 26.9068 11.7112 26.7374 10.856Z" fill="#1976D2"/>
</svg>
